<?xml version="1.0" standalone="yes"?>
<svg xmlns="http://www.w3.org/2000/svg" width="7678" height="7678">
<path style="fill:#ffffff; stroke:none;" d="M0 0L0 7678L7678 7678L7678 0L0 0z"/>
<path style="fill:#371977; stroke:none;" d="M3741 2103C3744.31 2121.56 3768.07 2122.64 3783 2126.37C3796.65 2129.79 3810.35 2132.96 3824 2136.37C3830.6 2138.02 3838.14 2141.11 3845 2140.87C3851.64 2140.63 3858.64 2137.12 3865 2135.29C3877.96 2131.57 3891.01 2128.19 3904 2124.58C4016.12 2093.42 4132.92 2068.83 4228 1997.52C4260.39 1973.23 4288.77 1944.78 4313.79 1913C4433.7 1760.64 4453.05 1554.27 4510.34 1375C4547.49 1258.78 4601.74 1142.57 4713 1080.86C4744.02 1063.65 4778.42 1052.56 4813 1045.21C4830.71 1041.44 4852.48 1042.39 4869 1035.12C4884.61 1028.26 4891.58 1012.34 4889.83 996C4888.06 979.585 4873.9 967.359 4858 965.289C4835.18 962.318 4807.23 970.992 4785 975.79C4686.34 997.087 4600.01 1055.05 4541.42 1137C4441.52 1276.73 4414.52 1453.32 4368.42 1615C4339.18 1717.56 4302.04 1821.49 4226.96 1900C4129.97 2001.42 3984.21 2025.5 3855 2061.42C3815.54 2072.4 3779.47 2089.9 3741 2103z"/>
<path style="fill:#d4c72a; stroke:none;" d="M4882 978C4887.6 988.109 4892.29 998.082 4889.24 1010C4887.79 1015.67 4877.39 1027.08 4879.75 1032C4883.48 1039.75 4893.94 1046.94 4900 1053L4946 1099L5099 1252L5612 1765L6336 2489L6569 2722L6644 2797C6656.46 2809.46 6668.6 2824.85 6683 2835C6688.88 2821.37 6701.4 2813.16 6716 2812L6711.04 2700L6700.04 2440L6661.96 1528L6648.96 1221L6642 1052L6475 1045.04L6168 1032.04L5279 994.96L5020 983.96L4882 978z"/>
<path style="fill:#e8676a; stroke:none;" d="M3878 3816C3904.68 3809.83 3931.01 3798.66 3957 3790L4111 3738.67L4578 3583C5048.31 3426.23 5518.72 3269.76 5989 3113L6506 2940.67L6635 2897.67L6667 2887C6670.3 2885.9 6676.7 2885.03 6678.4 2881.58C6681.56 2875.14 6680 2864.01 6680 2857C6680 2850.96 6683.46 2840.37 6681.65 2835C6678.85 2826.72 6666.11 2818.11 6660 2812L6606 2758L6310 2462L5227 1379L4963 1115L4899 1051C4894.51 1046.51 4882.82 1030.21 4876 1031.24C4870.6 1032.06 4865.66 1036.61 4860 1037.69C4845.79 1040.41 4831.24 1041.37 4817 1044.2C4812.4 1045.11 4804.23 1045.4 4800.7 1048.74C4797.56 1051.7 4796.66 1058.03 4795.33 1062L4785 1093L4747 1207L4587.33 1686C4429.34 2159.98 4271.65 2634.04 4113.67 3108L3956.67 3579L3904.67 3735C3895.79 3761.64 3884.33 3788.65 3878 3816z"/>
<path style="fill:#67bfc9; stroke:none;" d="M3655 1910.44C3643.87 1912.1 3638.22 1920.38 3630.96 1928C3616.96 1942.72 3602.9 1957.66 3589.58 1973C3576.53 1988.02 3562.64 2002.43 3549.09 2017C3538.06 2028.86 3519.35 2043.39 3514.1 2059C3504.59 2087.32 3540.43 2091.73 3559 2096.37C3598.94 2106.36 3639.06 2115.64 3679 2125.63C3693.2 2129.18 3715.73 2130.49 3725.79 2142.02C3735.98 2153.69 3739.16 2175.48 3744 2190C3755.9 2225.71 3767.69 2261.54 3780.31 2297C3786.54 2314.52 3790.46 2347.08 3816 2343.7C3827.64 2342.16 3834.99 2332.28 3842.29 2324C3854.22 2310.47 3866.6 2297.07 3879.04 2284C3892.42 2269.94 3905.85 2255.65 3918.58 2241C3930.14 2227.68 3949.95 2213.56 3956.52 2197C3968.27 2167.4 3931.5 2162.5 3912 2157.63C3873.12 2147.91 3834.18 2137.4 3795 2129C3780.63 2125.92 3755.16 2123.84 3745.39 2111.96C3735.34 2099.75 3731.95 2077.84 3727 2063C3715.21 2027.63 3703.13 1992.37 3691.33 1957C3685.49 1939.47 3680.09 1906.7 3655 1910.44M3384 2106.52C3370.74 2109.35 3362.41 2121.51 3353.83 2131C3335.93 2150.79 3317.36 2169.99 3299.71 2190C3282.33 2209.71 3263.67 2228.29 3246.29 2248C3237.06 2258.46 3227.7 2268.99 3217.99 2279C3211.48 2285.7 3203.03 2293.08 3199.71 2302C3185.01 2341.55 3232.39 2347.72 3259 2354.37C3310.16 2367.16 3361.44 2380.95 3413 2392C3433.07 2396.3 3467.61 2399.21 3481.81 2415.01C3488.05 2421.95 3490.12 2431.37 3493 2440C3497.46 2453.37 3502.21 2466.64 3506.67 2480C3522.68 2528.05 3538.33 2576.29 3555.31 2624C3564.27 2649.19 3570.03 2692.81 3607 2684.32C3620.59 2681.2 3629.35 2667.75 3638.17 2658C3655.76 2638.55 3674.22 2619.8 3691.42 2600C3708.64 2580.18 3727.22 2561.47 3744.83 2542C3754.51 2531.3 3764.09 2520.45 3774.04 2510C3780.44 2503.27 3788.38 2496.12 3791.23 2487C3803.38 2448.03 3755.94 2443.03 3730 2436.63C3677.35 2423.63 3624.61 2411.03 3572 2397.87C3553.07 2393.14 3523.02 2391.71 3509.09 2376.98C3495.04 2362.13 3491.26 2333.02 3484.66 2314C3467.69 2265.14 3451.68 2215.96 3435 2167C3426.6 2142.36 3419.68 2098.91 3384 2106.52z"/>
<path style="fill:#371977; stroke:none;" d="M3526 2387C3548.31 2344.64 3580.63 2308.66 3616 2276.83C3637.3 2257.66 3659.42 2239.3 3683 2222.98C3696.71 2213.48 3710.52 2204.02 3725 2195.72C3729.2 2193.31 3739.62 2189.49 3741.3 2184.67C3742.99 2179.83 3737.88 2170.64 3736.33 2166C3729.93 2146.79 3725.63 2137.03 3705 2131.87C3700.66 2130.79 3695.43 2128.52 3691 2130.11C3670.67 2137.43 3650.45 2155.1 3633 2167.58C3582.91 2203.39 3534.43 2245.6 3497.38 2295C3493.51 2300.16 3486.17 2307.4 3485.37 2314C3484.53 2320.94 3489.83 2330.48 3492 2337C3498.92 2357.76 3502.27 2380.12 3526 2387M3436.64 2399.07C3433.06 2401.34 3431.08 2408.34 3429.25 2412C3423.61 2423.27 3418.35 2434.72 3412.75 2446C3397.7 2476.33 3382.55 2506.66 3363.92 2535C3354.48 2549.37 3337.35 2563.96 3333.51 2581C3326.67 2611.38 3357.65 2637.1 3386 2622.73C3399.67 2615.79 3408.75 2600.14 3417.42 2588C3438.94 2557.89 3455.74 2525.01 3472.25 2492C3479.08 2478.34 3491.72 2461.13 3494.18 2446C3494.86 2441.78 3492.31 2436.92 3491 2433C3484.41 2413.23 3474.58 2407.02 3455 2402.13C3450.72 2401.06 3440.67 2396.51 3436.64 2399.07M5684 4180C5719.23 4120.27 5744.38 4053.78 5758.79 3986C5783.68 3868.95 5785.28 3743.45 5841.26 3635C5857.61 3603.31 5878.27 3574.41 5902.17 3548C5963.81 3479.88 6050.71 3438.53 6134 3403.58C6296.51 3335.38 6482.02 3292.95 6616 3171.83C6690.19 3104.76 6740.58 3012.38 6749.93 2912C6752.71 2882.03 6766.93 2817 6722 2812.17C6700.15 2809.83 6681.63 2824.99 6680.09 2847C6677.74 2880.58 6676.95 2912.93 6669.12 2946C6651.01 3022.4 6605.28 3087.48 6544 3135.79C6491.82 3176.92 6431.82 3206.47 6371 3232.42C6169.44 3318.43 5917.04 3367.26 5793.81 3568C5740.04 3655.59 5722.41 3756.22 5705.92 3856C5694.8 3923.28 5686.92 3991.06 5661.8 4055C5653.38 4076.42 5644.3 4097.54 5633.74 4118C5630.16 4124.94 5620.64 4135.91 5622.15 4144C5627.76 4174.12 5659.83 4173.19 5684 4180M2752 4174C2736.19 4201.36 2707.21 4225.79 2685 4248C2634.34 4298.66 2580.51 4345.79 2526 4392.27C2353.63 4539.25 2163.43 4689.04 2083.05 4909C2028.25 5058.99 2030.65 5224.85 2113.6 5364C2136.06 5401.67 2164.04 5436.04 2195 5467C2204.59 5476.59 2214.67 5485.77 2225 5494.57C2228.34 5497.42 2235.45 5501.34 2236.27 5506C2236.86 5509.35 2233.41 5513.28 2231.85 5516C2227.06 5524.34 2222.3 5532.72 2217.4 5541C2198.67 5572.6 2181.43 5605.07 2163.28 5637C2087.29 5770.67 2014.52 5907.62 1908.91 6021C1815.01 6121.82 1710.89 6212.15 1600 6293.88C1547.17 6332.83 1492.81 6371.6 1436 6404.58C1350.34 6454.29 1256.56 6488.79 1168 6532.75C1102.72 6565.16 1034.67 6593.75 975 6636.29C951.91 6652.75 921.764 6675.43 924.09 6707C926.199 6735.62 961.577 6746.74 982.996 6731.21C990.195 6725.99 993.237 6717.41 999.174 6711.04C1007.03 6702.61 1017.36 6695.9 1027 6689.69C1148.26 6611.59 1287.43 6563.04 1416 6498.75C1512.75 6450.38 1602.44 6386.58 1688 6320.65C1805.33 6230.25 1918.77 6130.2 2012.39 6015C2073.65 5939.62 2124.21 5856.09 2172.42 5772C2201.87 5720.63 2230.8 5668.9 2259.31 5617C2267.62 5601.87 2276.4 5586.97 2285 5572C2289.41 5564.32 2295.49 5556.52 2298 5548C2338.6 5578.98 2391.25 5599.7 2439 5616.69C2611.56 5678.1 2811.34 5664.69 2962 5555.42C3050.47 5491.26 3142.24 5382.16 3105.97 5265C3070.87 5151.58 2946.36 5095.93 2837 5082.84C2737.46 5070.93 2632.77 5090 2547 5143.43C2479.76 5185.31 2423.43 5245.16 2373.58 5306C2348.94 5336.07 2325.9 5367.65 2304.33 5400C2295.78 5412.83 2282.69 5427.28 2278 5442C2239.23 5408.13 2204.32 5370.29 2177.6 5326C2158.36 5294.11 2143.28 5259.81 2133 5224C2090.48 5075.82 2143.23 4913.04 2228.03 4790C2273.22 4724.42 2328.68 4667.77 2386 4612.96C2490.95 4512.61 2610.04 4427.46 2713 4325C2743.66 4294.49 2773.74 4263.75 2802 4231C2809.64 4222.15 2817.1 4213.14 2824.4 4204C2826.94 4200.83 2829.95 4194.97 2834.09 4193.77C2841.66 4191.58 2855.25 4196.98 2863 4198.25C2885.92 4202 2908.96 4204.88 2932 4207.72C2999.26 4215.98 3068.41 4217.54 3136 4212.91C3368.08 4197.02 3580.92 4102.62 3759 3954.41C3796.7 3923.04 3832.34 3889.66 3867 3855C3882.84 3839.16 3903.08 3823.06 3915 3804L3878 3816L3906.33 3731L3920 3688L3919 3688C3882.01 3736.73 3837.1 3781.87 3793 3824.04C3638.9 3971.39 3458.62 4087.23 3246 4125.58C3177.04 4138.01 3105.1 4145.03 3035 4141.96C2982.84 4139.68 2931.79 4132.58 2880 4126C2919.98 4065.58 2949.58 3996.01 2971.03 3927C3034.66 3722.25 3046.55 3478.88 2941.69 3285C2924.39 3253.01 2904.06 3222.79 2880.58 3195C2773.53 3068.31 2579.91 2979.89 2422 3065.31C2305.98 3128.07 2238.59 3256.13 2207.63 3380C2172.21 3521.65 2171.6 3681.36 2236.26 3815C2265.31 3875.04 2307.31 3928.56 2356 3973.91C2415.73 4029.56 2486.98 4073.42 2561 4107.31C2601.44 4125.83 2642.82 4141.27 2685 4155.33C2705.93 4162.31 2729.95 4172.2 2752 4174z"/>
<path style="fill:#ffffff; stroke:none;" d="M2552 3104.42C2520.93 3108.5 2492.73 3112.26 2464 3126.26C2407.66 3153.72 2364.71 3204.43 2334.15 3258C2272.01 3366.91 2245.44 3506.61 2260.72 3631C2266.17 3675.39 2275.04 3718.58 2292.42 3760C2346.51 3888.89 2463.8 3980.28 2588 4037.31C2638.54 4060.51 2690.49 4080.15 2744 4095.42C2757.27 4099.21 2770.61 4102.78 2784 4106.13C2788.77 4107.32 2795.9 4110.58 2800.82 4109.59C2806.13 4108.52 2810.56 4098.23 2813.19 4094C2822.81 4078.52 2832.02 4062.94 2840.86 4047C2878.48 3979.18 2904.72 3903.61 2921.42 3828C2970.88 3604.07 2953.86 3319.63 2750 3174.29C2707.56 3144.03 2658.36 3119.67 2607 3109.4C2589.81 3105.96 2569.5 3102.13 2552 3104.42z"/>
<path style="fill:#371977; stroke:none;" d="M3920 3687L3921 3688L3920 3687z"/>
<path style="fill:#67bfc9; stroke:none;" d="M5537 3960.53C5526.6 3962.93 5519.21 3973.37 5512.58 3981C5500.74 3994.62 5488.2 4007.78 5475.91 4021C5462.65 4035.26 5449.16 4049.4 5436.29 4064C5424.94 4076.87 5404.76 4091.52 5399.11 4108C5389.29 4136.62 5424.67 4141.86 5444 4146C5483.85 4154.54 5523.46 4165.24 5563 4175.13C5577.36 4178.72 5599.26 4179.92 5609.9 4191.04C5620.27 4201.9 5623.96 4224.89 5628.67 4239C5640.68 4275.04 5652.99 4310.96 5665 4347C5671.58 4366.74 5676.7 4399.21 5705 4392.47C5713.79 4390.37 5719.09 4382.12 5724.99 4376C5739.07 4361.38 5752.55 4346.05 5766.17 4331C5779.25 4316.54 5792.75 4302.46 5805.83 4288C5817 4275.65 5837.56 4260.36 5842.21 4244C5850.36 4215.32 5814.93 4211.86 5796 4207.13C5757.04 4197.39 5717.96 4188.11 5679 4178.37C5664.69 4174.8 5642.02 4173.83 5631.3 4162.81C5620.43 4151.63 5617.19 4128.55 5612.33 4114C5600.31 4077.94 5587.69 4042.06 5575.67 4006C5569.44 3987.32 5564.22 3954.25 5537 3960.53M5289 4103.46C5275.81 4105.84 5268.75 4115.93 5260.01 4125C5241.51 4144.2 5224.34 4164.68 5205.96 4184C5188.23 4202.64 5170.44 4221.58 5153.58 4241C5142.33 4253.94 5130.33 4266.28 5118.83 4279C5112.96 4285.49 5105.83 4291.57 5102.71 4300C5101.25 4303.96 5100.99 4307.82 5101 4312C5101.1 4343.86 5138.34 4345.71 5162 4351.63C5215.25 4364.94 5268.73 4377.37 5322 4390.63C5340.86 4395.32 5371.32 4396.99 5384.81 4412.01C5398.75 4427.52 5403.16 4457.48 5409.67 4477C5425.69 4525.07 5442.31 4572.93 5458.33 4621C5466.7 4646.1 5473.28 4688.81 5509 4681.9C5521.9 4679.41 5529.54 4667.93 5538.04 4659C5556.42 4639.67 5574.28 4619.78 5592.17 4600C5609.5 4580.84 5627.63 4562.37 5644.71 4543C5656.06 4530.14 5668.18 4517.95 5679.42 4505C5684.65 4498.98 5691.06 4493.67 5693.91 4486C5708.49 4446.66 5660.2 4440.33 5634 4434.12C5580.58 4421.45 5527.26 4408.19 5474 4394.87C5454.65 4390.04 5425 4388.61 5411.19 4373C5405.49 4366.56 5403.7 4357.95 5401 4350C5396.23 4336 5391.35 4322.04 5386.67 4308C5370.76 4260.27 5354.24 4212.73 5338.33 4165C5330.33 4140.99 5323.78 4097.19 5289 4103.46z"/>
<path style="fill:#371977; stroke:none;" d="M5404 4358C5407.94 4384.71 5437.91 4386.1 5459 4391.37C5465.56 4393.01 5476.41 4398.05 5483 4395.69C5495.29 4391.27 5507.44 4379.97 5518 4372.42C5548.78 4350.42 5577.42 4325.7 5602.13 4297C5611.61 4285.98 5628.34 4270.85 5633.11 4257C5634.87 4251.89 5630.94 4244.83 5629.33 4240C5624.54 4225.62 5621.03 4206.85 5613.01 4194C5610.21 4189.53 5602.18 4182.12 5596.18 4183.79C5591.45 4185.1 5587.41 4194.21 5584.71 4198C5575.76 4210.55 5566.63 4222.96 5557 4235C5539.98 4256.27 5521.28 4275.75 5500 4292.8C5470.21 4316.68 5437.77 4340.03 5404 4358M5345 4397C5336.52 4398.62 5326.79 4408.3 5320 4413.37C5305.05 4424.54 5290.84 4436.33 5277 4448.83C5268.86 4456.18 5259.62 4463.49 5255.46 4474C5244.87 4500.78 5267.22 4529.71 5296 4524.54C5311.15 4521.81 5321.23 4509.06 5332 4499.09C5344.78 4487.24 5358.83 4476.81 5373 4466.71C5379.46 4462.1 5395.63 4455.15 5398.79 4447.82C5400.73 4443.31 5395.82 4434.29 5394.19 4430C5387.14 4411.38 5379.26 4404.55 5360 4399.87C5355.52 4398.78 5349.63 4396.12 5345 4397z"/>
<path style="fill:#ffffff; stroke:none;" d="M2337 5486C2502.22 5595.33 2745.2 5619.62 2912 5500.71C2976.29 5454.87 3062.06 5374.57 3035.56 5286C3026.88 5256.98 3006.3 5233.14 2983 5214.6C2935.72 5176.99 2872.58 5158.28 2813 5153.91C2741.09 5148.64 2668.04 5160.67 2604 5195.31C2531.13 5234.72 2471.32 5300.57 2420.79 5365C2399.97 5391.55 2380.38 5418.93 2361.67 5447C2353.49 5459.26 2342.24 5472.19 2337 5486z"/>
</svg>
